<svg width="18" height="18" viewBox="0 0 18 18" fill="none" xmlns="http://www.w3.org/2000/svg">
<path d="M2.51986 17.64H13.3199C14.5131 17.64 15.4799 16.6732 15.4799 15.48V13.32C15.4799 12.922 15.1578 12.6 14.7599 12.6C14.3619 12.6 14.0399 12.922 14.0399 13.32V15.48C14.0399 15.6713 13.9639 15.8541 13.8289 15.9891C13.6939 16.1241 13.5111 16.2 13.3199 16.2H2.51986C2.1219 16.2 1.79986 15.878 1.79986 15.48V4.68C1.79986 4.28204 2.1219 3.96 2.51986 3.96H4.67986C5.07783 3.96 5.39986 3.63796 5.39986 3.24C5.39986 2.84204 5.07783 2.52 4.67986 2.52H2.51986C1.32666 2.52 0.359863 3.4868 0.359863 4.68V15.48C0.359863 16.6732 1.32666 17.64 2.51986 17.64Z" fill="#333333"/>
<path d="M17.6398 1.08C17.6398 0.888751 17.5638 0.705943 17.4288 0.570943C17.2938 0.435943 17.111 0.360001 16.9198 0.360001H15.4798C12.8071 0.362813 10.245 1.42594 8.355 3.31524C6.46572 5.20524 5.40264 7.76736 5.39976 10.44V11.5812L3.45072 13.5309C3.16877 13.8122 3.16877 14.2678 3.45072 14.549C3.73197 14.831 4.18761 14.831 4.46884 14.549L6.4186 12.6H7.55976C10.4405 12.5965 13.1826 11.3604 15.0931 9.20322C15.3202 8.94728 15.3364 8.56688 15.1304 8.29267L14.0722 6.85267C14.0764 6.84142 14.0877 6.83509 14.0989 6.8365H16.1999C16.4903 6.8365 16.7525 6.66142 16.8643 6.39354C17.3776 5.16659 17.6413 3.8496 17.6399 2.51994L17.6398 1.08ZM16.1998 2.52C16.2012 3.50086 16.0345 4.47534 15.7069 5.4H14.0988C13.5427 5.4007 13.0336 5.715 12.7847 6.21351C12.5365 6.71132 12.5899 7.30687 12.9239 7.75266L13.613 8.67094C12 10.2621 9.82593 11.1566 7.55973 11.16H6.83973V10.44C6.84184 8.14912 7.75309 5.9533 9.37305 4.3333C10.993 2.7133 13.1889 1.80214 15.4797 1.79998H16.1997L16.1998 2.52Z" fill="#333333"/>
</svg>
