<svg width="20" height="20" viewBox="0 0 20 20" fill="none" xmlns="http://www.w3.org/2000/svg">
<g clip-path="url(#clip0)">
<path d="M2.2992 0H17.7016C18.9672 0 20.0008 1.0336 20.0008 2.2992V17.7016C20.0008 18.9672 18.9672 20.0008 17.7016 20.0008H2.2992C1.03358 20.0008 0 18.9672 0 17.7016V2.2992C0 1.03358 1.0336 0 2.2992 0V0ZM9.9984 14.0336L14.3226 10.0046C14.5492 9.79366 14.8984 9.79756 15.1218 10.0046L18.8234 13.4554V2.2984C18.8234 1.682 18.3172 1.17574 17.7008 1.17574H2.29836C1.68196 1.17574 1.1757 1.68198 1.1757 2.2984V13.457L4.8773 10.0078C5.10386 9.79686 5.45308 9.80076 5.67652 10.0078L9.99752 14.0328L9.9984 14.0336ZM18.8242 15.0609L14.7226 11.2367L10.8594 14.8359L15.1406 18.8241H17.7008C18.3172 18.8241 18.8235 18.3179 18.8235 17.7015V15.0617L18.8242 15.0609ZM13.4196 18.8241L5.2782 11.2405L1.1766 15.0615V17.7013C1.1766 18.3177 1.68284 18.824 2.29926 18.824L13.4196 18.8241Z" fill="black" fill-opacity="0.6"/>
<path d="M10.0468 4.8718C11.2007 4.8718 12.1358 5.80696 12.1358 6.9608C12.1358 8.1147 11.2006 9.0498 10.0468 9.0498C8.89292 9.0498 7.95776 8.11464 7.95776 6.9608C7.95776 5.8069 8.89292 4.8718 10.0468 4.8718ZM10.0468 6.04758C9.54286 6.04758 9.13348 6.45696 9.13348 6.96086C9.13348 7.46476 9.54286 7.87414 10.0468 7.87414C10.5507 7.87414 10.96 7.46476 10.96 6.96086C10.96 6.45696 10.5507 6.04758 10.0468 6.04758Z" fill="black" fill-opacity="0.6"/>
</g>
<defs>
<clipPath id="clip0">
<rect width="20" height="20" fill="white"/>
</clipPath>
</defs>
</svg>
